<svg width="83" height="81" viewBox="0 0 83 81" fill="none" xmlns="http://www.w3.org/2000/svg">
<path d="M23.1166 32.7446C23.1166 28.9856 26.066 25.9373 29.7031 25.9373H2.03972V36.829H24.4339L24.4471 36.8072C23.6224 35.6704 23.1166 34.2749 23.1166 32.7446Z" fill="#C7A17A"/>
<rect x="52.0973" y="24.5758" width="28.9807" height="13.6147" fill="#C7A17A"/>
<path fill-rule="evenodd" clip-rule="evenodd" d="M58.2722 9.13852C54.7596 3.69834 48.5894 0.069397 41.5589 0.069397C34.5284 0.069397 28.3569 3.69834 24.8456 9.13852H0.653076V19.5032V45.415V80.3959H24.4048H58.7129H82.4647V45.415V19.5032V9.13852H58.2722ZM41.5589 2.66058C51.0173 2.66058 58.7129 10.2165 58.7129 19.5032V22.0944H79.8256V42.8238H58.7129H49.0064C51.7035 40.6848 53.4347 37.4161 53.4347 33.7547V22.0944H29.683V24.6856C25.3166 24.6856 21.7657 28.172 21.7657 32.4591C21.7657 36.7462 25.3166 40.2327 29.683 40.2327H31.6913C32.3604 41.2121 33.1785 42.0841 34.1114 42.8238H24.4048H3.29216V22.0944H24.4048V19.5032C24.4048 10.2165 32.1004 2.66058 41.5589 2.66058ZM27.0439 45.415V50.5974H56.0738V45.415H27.0439ZM32.3221 33.7547V24.6856H50.7957V33.7547C50.7957 38.7557 46.6523 42.8239 41.5589 42.8239C36.4654 42.8239 32.3221 38.7557 32.3221 33.7547ZM29.683 37.6415H30.3758C29.935 36.4237 29.683 35.119 29.683 33.7547V27.2768C26.7721 27.2768 24.4048 29.6011 24.4048 32.4592C24.4048 35.3172 26.7721 37.6415 29.683 37.6415ZM3.29216 16.912H16.4876V14.3209H3.29216V11.7297H23.4297C23.0576 12.564 22.7528 13.4308 22.5021 14.3209H19.1267V16.912H21.9624C21.8462 17.7619 21.7657 18.6222 21.7657 19.5032H3.29216V16.912ZM3.29216 45.415V77.8048H24.4048V45.415H3.29216ZM27.0439 53.1885H40.2393V77.8047H27.0439V53.1885ZM42.8784 53.1885V77.8047H56.0738V53.1885H42.8784ZM79.8256 77.8048H58.7129V45.415H79.8256V77.8048ZM61.1554 16.912C61.2715 17.7619 61.352 18.6222 61.352 19.5032H79.8256V16.912H66.6302V14.3209H79.8256V11.7297H59.6881C60.0602 12.564 60.3637 13.4308 60.6157 14.3209H63.9911V16.912H61.1554Z" fill="#232C38"/>
<path d="M42.8784 19.5033H45.5175V17.2178C45.5175 15.9248 46.2498 14.7627 47.4269 14.1849C49.5052 13.1639 50.7957 11.1143 50.7957 8.83408V6.54736H48.1566V8.83278C48.1566 10.1258 47.4242 11.2879 46.2472 11.8658C44.1689 12.8867 42.8784 14.9363 42.8784 17.2165V19.5033Z" fill="#232C38"/>
<path d="M37.6002 17.2178C37.6002 15.9248 38.3326 14.7627 39.5096 14.1849C41.5879 13.1639 42.8784 11.1143 42.8784 8.83408V6.54736H40.2393V8.83278C40.2393 10.1258 39.507 11.2879 38.33 11.8658C36.2517 12.8867 34.9612 14.9363 34.9612 17.2165V19.5033H37.6002V17.2178Z" fill="#232C38"/>
<rect x="34.9612" y="60.9621" width="2.63908" height="5.18236" fill="#232C38"/>
<rect x="45.5175" y="60.9621" width="2.63908" height="5.18236" fill="#232C38"/>
</svg>
