<svg width="83" height="81" viewBox="0 0 83 81" fill="none" xmlns="http://www.w3.org/2000/svg">
<rect x="2.96832" y="49.1578" width="42.1538" height="26.2177" fill="#C7A17A"/>
<path d="M45.1221 57.0231H80.6893V28.1837H41.1702V36.049H45.1221V57.0231Z" fill="#C7A17A"/>
<path fill-rule="evenodd" clip-rule="evenodd" d="M82.7346 9.13852V3.95616C82.7346 1.81326 80.9585 0.069397 78.7759 0.069397H41.8288C39.6462 0.069397 37.8701 1.81326 37.8701 3.95616V9.13852C37.8701 10.2825 38.3861 11.3022 39.1897 12.0147V33.7547H4.8816C2.69908 33.7547 0.922974 35.4986 0.922974 37.6415V73.918C0.922974 77.4899 3.88271 80.3959 7.52068 80.3959H39.1897C39.641 80.3959 40.083 80.3506 40.5092 80.2651V80.3959H78.7759C80.9585 80.3959 82.7346 78.6521 82.7346 76.5092V71.3268C82.7346 70.1828 82.2186 69.1632 81.415 68.4506V12.0147C82.2186 11.3022 82.7346 10.2825 82.7346 9.13852ZM80.0956 3.95617V9.13853C80.0956 9.8524 79.5031 10.4341 78.776 10.4341H73.4978V2.66058H78.776C79.5031 2.66058 80.0956 3.2423 80.0956 3.95617ZM49.7461 2.66058V10.4341H55.0242V2.66058H49.7461ZM57.6633 2.66058H62.9415V10.4341H57.6633V2.66058ZM70.8587 2.66058H65.5806V10.4341H70.8587V2.66058ZM40.5092 3.95617C40.5092 3.2423 41.1017 2.66058 41.8288 2.66058H47.1069V10.4341H41.8288C41.1017 10.4341 40.5092 9.8524 40.5092 9.13853V3.95617ZM3.56207 73.918C3.56207 76.0609 5.33818 77.8047 7.5207 77.8047H39.1897C41.3722 77.8047 43.1483 76.0609 43.1483 73.918V44.1194H40.5092V41.5282H43.1483V37.6415C43.1483 36.9276 42.5559 36.3459 41.8288 36.3459H4.88161C4.15455 36.3459 3.56207 36.9276 3.56207 37.6415V41.5282H37.8702V44.1194H3.56207V73.918ZM80.0955 76.5091C80.0955 77.2243 79.5031 77.8047 78.776 77.8047H44.4336C45.2715 76.719 45.7875 75.382 45.7875 73.918V70.0312H78.776C79.5031 70.0312 80.0955 70.6116 80.0955 71.3268V76.5091ZM45.7874 67.44H78.776V13.0253H41.8288V33.7547C44.0113 33.7547 45.7874 35.4986 45.7874 37.6415V67.44Z" fill="#151D28"/>
<path fill-rule="evenodd" clip-rule="evenodd" d="M57.7002 51.8761C60.7484 51.8761 64.1092 50.5041 66.7774 47.8857C71.3667 43.3796 72.1954 36.8628 68.6247 33.357C65.054 29.8511 58.4167 30.6647 53.8287 35.1708C49.2406 39.6768 48.412 46.1937 51.9813 49.6982C53.4751 51.1661 55.5058 51.8761 57.7002 51.8761ZM64.9115 46.0538C61.8 49.1075 57.6144 50.1154 54.9133 48.6514L67.5585 36.2358C69.047 38.8891 68.023 42.9975 64.9115 46.0538ZM62.8887 33.7418C60.5439 33.7418 57.8599 34.8754 55.6932 37.0028C52.5818 40.0591 51.5578 44.1674 53.0462 46.8194L65.6756 34.4194C64.8561 33.9763 63.91 33.7418 62.8887 33.7418Z" fill="#151D28"/>
<path fill-rule="evenodd" clip-rule="evenodd" d="M16.8803 54.6046C12.2909 59.1107 11.4622 65.6275 15.0329 69.1333C16.5266 70.6012 18.5574 71.3112 20.7518 71.3112C23.7999 71.3112 27.1608 69.9392 29.8289 67.3208C34.4183 62.8148 35.247 56.2979 31.6763 52.7921C28.1069 49.2836 21.4696 50.0985 16.8803 54.6046ZM18.7461 56.4366C20.9128 54.3105 23.598 53.1769 25.9415 53.1769C26.9629 53.1769 27.909 53.4114 28.7284 53.8545L16.0991 66.2546C14.6106 63.6012 15.6346 59.4929 18.7461 56.4366ZM17.9662 68.0852C20.6673 69.5492 24.8529 68.5412 27.9644 65.4875C31.0759 62.4312 32.0998 58.3229 30.6114 55.6696L17.9662 68.0852Z" fill="#151D28"/>
</svg>
