<svg width="81" height="80" viewBox="0 0 81 80" fill="none" xmlns="http://www.w3.org/2000/svg">
<path d="M71.1964 46.7328C69.7277 49.7281 66.5877 51.8031 62.9419 51.8031V46.7328H18.5137V51.8031C14.8667 51.8031 11.7279 49.7281 10.2592 46.7328H5.44656V74.6194H76.0091V46.7328H71.1964Z" fill="#C7A17A"/>
<path fill-rule="evenodd" clip-rule="evenodd" d="M73.1578 41.4464H77.0591C79.21 41.4464 80.9604 43.1511 80.9604 45.2459V75.6427C80.9604 77.7374 79.21 79.4421 77.0591 79.4421H4.23526C2.08436 79.4421 0.333984 77.7374 0.333984 75.6427V45.2471C0.333984 43.1524 2.08436 41.4477 4.23526 41.4477H8.13654V40.1812C8.13654 36.0588 10.7751 32.3581 14.6387 30.8219V26.7426C10.7751 25.2063 8.13654 21.5057 8.13654 17.3833V16.1168C3.83343 16.1168 0.333984 12.7087 0.333984 8.5179C0.333984 4.32711 3.83343 0.919006 8.13654 0.919006H73.1578C77.4609 0.919006 80.9604 4.32711 80.9604 8.5179C80.9604 12.7087 77.4609 16.1168 73.1578 16.1168V17.3833C73.1578 21.5057 70.5193 25.2076 66.6557 26.7426V30.8206C70.5193 32.3569 73.1578 36.0588 73.1578 40.1799V41.4464ZM70.557 42.7129V40.1799C70.557 37.4494 69.0095 34.9684 66.6557 33.6284V35.114C66.6557 35.6206 66.549 36.1031 66.3631 36.5464C67.354 37.4823 67.9561 38.7792 67.9561 40.1799V42.7129C67.9561 45.0698 66.2955 47.0557 64.0548 47.6192V50.2067C67.7402 49.6013 70.557 46.4718 70.557 42.7129ZM21.1408 16.1168V17.3832C21.1408 17.6783 21.0758 17.9646 20.9743 18.2369C20.3046 17.7113 19.4645 17.3832 18.5399 17.3832C17.6153 17.3832 16.7753 17.7113 16.1055 18.2369C16.0041 17.9646 15.9391 17.6783 15.9391 17.3832V16.1168H21.1408ZM17.2395 21.1827V35.114C17.2395 35.8119 17.8234 36.3805 18.54 36.3805C19.2565 36.3805 19.8404 35.8119 19.8404 35.114V21.1827C19.8404 20.4849 19.2565 19.9163 18.54 19.9163C17.8234 19.9163 17.2395 20.4849 17.2395 21.1827ZM22.3957 20.7407C23.2423 19.8174 23.7416 18.632 23.7416 17.3832V16.1168H26.3425V17.3832C26.3425 20.1138 24.795 22.5948 22.4412 23.9347V21.1827C22.4412 21.0757 22.4268 20.9719 22.4124 20.8682L22.4124 20.8681C22.4065 20.8257 22.4006 20.7833 22.3957 20.7407ZM16.692 38.4398C16.2343 38.902 15.9391 39.5087 15.9391 40.1799V41.4464H21.1408V40.1799C21.1408 39.5099 20.8456 38.902 20.3878 38.4398C19.8352 38.7323 19.2123 38.9134 18.5399 38.9134C17.8676 38.9134 17.2447 38.7323 16.692 38.4398ZM22.1486 36.5464C22.3346 36.1044 22.4412 35.6219 22.4412 35.114V33.6284C24.795 34.9696 26.3425 37.4507 26.3425 40.1799V41.4464H23.7417V40.1799C23.7417 38.7792 23.1396 37.4811 22.1486 36.5464ZM22.4412 26.7425V30.8206C26.3048 32.3569 28.9434 36.0575 28.9434 40.1812V41.4477H52.351V40.1812C52.351 36.0588 54.9896 32.3569 58.8531 30.8219V26.7425C54.9896 25.2063 52.351 21.5044 52.351 17.3832V16.1168H28.9434V17.3832C28.9434 21.5056 26.3048 25.2063 22.4412 26.7425ZM61.454 35.114V21.1827C61.454 20.4849 62.0379 19.9163 62.7544 19.9163C63.471 19.9163 64.0549 20.4849 64.0549 21.1827V35.114C64.0549 35.8119 63.471 36.3805 62.7544 36.3805C62.0379 36.3805 61.454 35.8119 61.454 35.114ZM65.1888 18.2369C65.2903 17.9646 65.3553 17.6783 65.3553 17.3832V16.1168H60.1536V17.3832C60.1536 17.6783 60.2186 17.9646 60.32 18.2369C60.9897 17.7113 61.8298 17.3832 62.7544 17.3832C63.679 17.3832 64.5191 17.7113 65.1888 18.2369ZM58.8987 20.7407C58.8941 20.7778 58.8889 20.8146 58.8837 20.8514C58.8684 20.9604 58.8531 21.0691 58.8531 21.1827V23.9347C56.4994 22.5935 54.9519 20.1125 54.9519 17.3832V16.1168H57.5527V17.3832C57.5527 18.6333 58.0521 19.8174 58.8987 20.7407ZM58.8531 33.6284C56.4994 34.9684 54.9519 37.4494 54.9519 40.1799V41.4464H57.5527V40.1799C57.5527 38.7792 58.1548 37.4823 59.1457 36.5464C58.9598 36.1031 58.8531 35.6206 58.8531 35.114V33.6284ZM60.1536 40.1799C60.1536 39.5087 60.4488 38.902 60.9065 38.4398C61.4592 38.7323 62.0821 38.9134 62.7544 38.9134C63.4267 38.9134 64.0496 38.7323 64.6023 38.4398C65.0601 38.902 65.3553 39.5099 65.3553 40.1799V41.4464H60.1536V40.1799ZM66.6557 23.9347C69.0095 22.5948 70.557 20.1138 70.557 17.3832V14.8503C70.557 11.0914 67.7402 7.96188 64.0548 7.35651V9.94393C66.2955 10.5088 67.9561 12.4946 67.9561 14.8503V17.3832C67.9561 18.6333 67.4567 19.8174 66.6102 20.7419C66.615 20.7834 66.6208 20.8248 66.6265 20.8662L66.6266 20.8666L66.6266 20.867L66.6267 20.8673C66.6412 20.9711 66.6557 21.0753 66.6557 21.1827V23.9347ZM2.93484 8.51789C2.93484 5.72403 5.2678 3.45197 8.13654 3.45197H73.1578C76.0266 3.45197 78.3595 5.72403 78.3595 8.51789C78.3595 11.3117 76.0266 13.5838 73.1578 13.5838H73.0681C72.4244 8.59388 68.0498 4.71845 62.7544 4.71845H61.454V12.3173H62.7544C63.7128 12.3173 64.5425 12.8303 64.9938 13.5838H16.3006C16.7519 12.8303 17.5815 12.3173 18.5399 12.3173H19.8404V4.71845H18.5399C13.2446 4.71845 8.86998 8.59388 8.22627 13.5838H8.13654C5.2678 13.5838 2.93484 11.3117 2.93484 8.51789ZM10.7374 16.1168V17.3832C10.7374 20.1138 12.2849 22.5948 14.6387 23.9347V21.1827C14.6387 21.0702 14.6539 20.9619 14.6692 20.8532L14.6692 20.8531C14.6744 20.8162 14.6796 20.7792 14.6842 20.7419C13.8376 19.8174 13.3382 18.632 13.3382 17.3832V14.8503C13.3382 12.4934 14.9989 10.5075 17.2395 9.94393V7.35651C13.5541 7.96188 10.7374 11.0914 10.7374 14.8503V16.1168ZM10.7374 40.1799C10.7374 37.4494 12.2849 34.9684 14.6387 33.6284V35.114C14.6387 35.6219 14.7453 36.1031 14.9313 36.5464C13.9403 37.4823 13.3382 38.7792 13.3382 40.1799V42.7129C13.3382 45.0685 14.9989 47.0544 17.2395 47.6192V50.2067C13.5541 49.6013 10.7374 46.4718 10.7374 42.7129V41.4464V40.1799ZM77.0591 76.9079C77.7756 76.9079 78.3595 76.3392 78.3595 75.6414V45.2459C78.3595 44.548 77.7756 43.9794 77.0591 43.9794H73.0681C72.4244 48.9693 68.0498 52.8447 62.7544 52.8447H61.454V45.2459H62.7544C63.7128 45.2459 64.5425 44.7329 64.9938 43.9794H16.3006C16.7519 44.7329 17.5815 45.2459 18.5399 45.2459H19.8404V52.8447H18.5399C13.2446 52.8447 8.86998 48.9693 8.22627 43.9794H4.23527C3.51873 43.9794 2.93484 44.548 2.93484 45.2459V75.6414C2.93484 76.3392 3.51873 76.9079 4.23527 76.9079H77.0591Z" fill="#232C38"/>
<path d="M42.7526 51.002V51.006H42.7567L42.7526 51.002Z" fill="#232C38"/>
<path fill-rule="evenodd" clip-rule="evenodd" d="M42.9687 51.2249C43.0166 51.2764 43.0645 51.3278 43.1141 51.3782C48.3847 48.3842 54.6346 48.6742 58.3772 52.2191C60.3629 54.1024 61.4566 56.7265 61.4566 59.6078C61.4566 63.2755 59.7244 67.0217 56.7048 69.884C53.5916 72.8362 49.6188 74.3597 45.91 74.3597C42.9841 74.3597 40.222 73.4111 38.1712 71.4684L38.1764 71.462C37.6848 71.519 37.1907 71.557 36.6874 71.557C32.9786 71.557 29.0071 70.0334 25.8926 67.0813C22.873 64.2178 21.1408 60.4715 21.1408 56.8038C21.1408 53.9225 22.2345 51.2984 24.2202 49.4164C28.8679 45.009 37.1816 45.7208 42.7526 51.002C42.8283 51.0742 42.8985 51.1496 42.9686 51.2249L42.9687 51.2249ZM40.9385 52.8169C38.3194 50.3333 35.0033 49.0402 31.9642 49.0402C30.1749 49.0402 28.496 49.5076 27.0942 50.4232L43.4327 65.9123C44.3924 64.623 44.9022 63.0475 44.9022 61.2782C44.9022 58.2893 43.4574 55.2055 40.9385 52.8169ZM27.7053 65.2677C25.1851 62.8791 23.7416 59.7952 23.7416 56.8063C23.7416 55.037 24.2501 53.4615 25.2111 52.1735L41.5562 67.6689C37.7784 70.1436 31.868 69.214 27.7053 65.2677ZM41.326 70.6553C45.1116 72.8995 50.8308 71.9142 54.8882 68.0691C57.4084 65.6806 58.8532 62.5967 58.8519 59.6078C58.8519 57.8385 58.3421 56.2617 57.3824 54.9737L55.407 56.8469L53.5916 55.032L55.4968 53.226C52.641 51.3668 48.5135 51.425 44.8177 53.3742C46.4497 55.6576 47.3782 58.2514 47.477 60.8287L52.0402 56.5024L53.8556 58.3185L46.8463 64.9637C46.3275 66.367 45.5173 67.6309 44.4249 68.6669C43.5172 69.5269 42.4652 70.1816 41.326 70.6553Z" fill="#232C38"/>
<rect x="25.0421" y="5.98492" width="26.0085" height="2.53296" fill="#232C38"/>
<rect x="53.6514" y="5.98492" width="2.60085" height="2.53296" fill="#232C38"/>
</svg>
