<svg width="78" height="81" viewBox="0 0 78 81" fill="none" xmlns="http://www.w3.org/2000/svg">
<path d="M9.80707 18.1429V18.8997C9.80707 24.6857 12.8783 30.0751 17.9595 33.2041H43.583C48.6643 30.0751 51.7355 24.6857 51.7355 18.8997V18.1429H9.80707Z" fill="#C7A17A"/>
<path fill-rule="evenodd" clip-rule="evenodd" d="M69.3837 0.069397C73.7501 0.069397 77.3009 3.55583 77.3009 7.84293C77.3009 11.2205 75.0933 14.0929 72.0228 15.163V80.3946H6.04568C3.13477 80.3946 0.767517 78.0703 0.767517 75.2123C0.767517 72.3542 3.13477 70.0299 6.04568 70.0299H16.7485C15.5794 68.9079 14.719 67.4828 14.2849 65.8866L10.5572 64.6688C7.85874 63.7852 6.04568 61.3145 6.04568 58.5225V50.4458C6.04568 47.6538 7.85742 45.1844 10.5559 44.3008L13.9629 43.1866V42.8238C13.9629 42.2525 14.0962 41.7135 14.3232 41.2251C12.5761 40.5786 11.3239 38.9319 11.3239 36.9937C11.3239 34.9324 12.7397 33.208 14.6597 32.6586C10.8699 29.1372 8.68477 24.2347 8.68477 18.9889V15.6165C4.3184 15.6165 0.767517 12.13 0.767517 7.84293C0.767517 3.55583 4.3184 0.069397 8.68477 0.069397H25.8388H39.0342H56.1883H69.3837ZM40.3538 3.95617C40.3538 3.2423 39.7613 2.66058 39.0343 2.66058H25.8389C25.1118 2.66058 24.5193 3.2423 24.5193 3.95617C24.5193 4.67004 25.1118 5.25176 25.8389 5.25176H39.0343C39.7613 5.25176 40.3538 4.67004 40.3538 3.95617ZM3.40661 7.84294C3.40661 4.98487 5.77387 2.66058 8.68478 2.66058H22.123C21.9752 3.0674 21.8802 3.50013 21.8802 3.95617C21.8802 6.09908 23.6563 7.84294 25.8388 7.84294H39.0342C41.2168 7.84294 42.9929 6.09908 42.9929 3.95617C42.9929 3.50013 42.8979 3.0674 42.7501 2.66058H56.1883C59.0992 2.66058 61.4665 4.98487 61.4665 7.84294C61.4665 10.701 59.0992 13.0253 56.1883 13.0253H8.68478C5.77387 13.0253 3.40661 10.701 3.40661 7.84294ZM56.1883 33.7547H61.4665V28.5724H56.1883V33.7547ZM56.1883 44.1194H61.4665V49.3018H56.1883V44.1194ZM56.1883 41.5282H61.4665V36.3459H56.1883V41.5282ZM53.5492 25.9812V33.7547V44.1194V51.893H61.4664V70.0312H45.4855C47.2009 68.3832 48.271 66.09 48.271 63.5533V42.8238C48.271 42.2525 48.1378 41.7135 47.9108 41.2251C49.6579 40.5773 50.9101 38.9319 50.9101 36.9937C50.9101 34.9337 49.4942 33.2093 47.5743 32.6586C51.364 29.1359 53.5492 24.2334 53.5492 18.9889V15.6165H56.1883H61.4664V25.9812H53.5492ZM50.9101 18.9889V15.6165H11.3239V18.9889C11.3239 20.0474 11.4585 21.08 11.6577 22.0944H17.9216C21.5596 22.0944 24.5193 25.0004 24.5193 28.5723V32.4591H43.5906C48.1734 29.4313 50.9101 24.4291 50.9101 18.9889ZM12.3822 24.6856H17.9216C20.1041 24.6856 21.8802 26.4295 21.8802 28.5724V32.4591H18.6434C15.7312 30.5339 13.5711 27.8145 12.3822 24.6856ZM46.2917 35.0503H15.9422C14.851 35.0503 13.9629 35.9222 13.9629 36.9937C13.9629 38.0651 14.851 38.9371 15.9422 38.9371H46.2917C47.383 38.9371 48.271 38.0651 48.271 36.9937C48.271 35.9222 47.383 35.0503 46.2917 35.0503ZM8.6848 58.5225V50.4458C8.6848 48.7706 9.7721 47.2884 11.3912 46.7572L13.963 45.9164V63.0531L11.3912 62.2123C9.7721 61.6798 8.6848 60.1977 8.6848 58.5225ZM16.6021 42.8238V63.5533C16.6021 67.1252 19.5618 70.0312 23.1998 70.0312H39.0343C42.6723 70.0312 45.632 67.1252 45.632 63.5533V42.8238C45.632 42.1087 45.0395 41.5283 44.3124 41.5283H17.9216C17.1945 41.5283 16.6021 42.1087 16.6021 42.8238ZM69.3837 77.8047H6.04569C4.59024 77.8047 3.40661 76.6426 3.40661 75.2136C3.40661 73.7845 4.59024 72.6224 6.04569 72.6224H23.1997H39.0342H64.1055V51.893V44.1194V33.7547V25.9812V15.6165H69.3837V77.8047ZM62.0734 13.0253H69.3837C72.2946 13.0253 74.6619 10.701 74.6619 7.84294C74.6619 4.98487 72.2946 2.66058 69.3837 2.66058H62.0734C63.3323 4.03779 64.1055 5.85032 64.1055 7.84294C64.1055 9.83556 63.3323 11.6481 62.0734 13.0253Z" fill="#151D28"/>
<rect x="40.3538" y="44.1194" width="2.63908" height="2.59118" fill="#333333"/>
<rect x="19.2411" y="44.1194" width="18.4736" height="2.59118" fill="#333333"/>
</svg>
